<?xml version="1.0" encoding="UTF-8" standalone="no"?>
<!-- Created with Inkscape (http://www.inkscape.org/) -->

<svg
   xmlns:dc="http://purl.org/dc/elements/1.1/"
   xmlns:cc="http://creativecommons.org/ns#"
   xmlns:rdf="http://www.w3.org/1999/02/22-rdf-syntax-ns#"
   xmlns:svg="http://www.w3.org/2000/svg"
   xmlns="http://www.w3.org/2000/svg"
   xmlns:sodipodi="http://sodipodi.sourceforge.net/DTD/sodipodi-0.dtd"
   xmlns:inkscape="http://www.inkscape.org/namespaces/inkscape"
   id="svg2"
   version="1.1"
   inkscape:version="0.48.5 r10040"
   width="387.5"
   height="203.75"
   xml:space="preserve"
   sodipodi:docname="ReScience-banner.pdf"
   inkscape:export-filename="/Users/rougier/Development/Public/ReScience/ReScience.material/ReScience-banner-1000.png"
   inkscape:export-xdpi="232.25807"
   inkscape:export-ydpi="232.25807"><metadata
     id="metadata8"><rdf:RDF><cc:Work
         rdf:about=""><dc:format>image/svg+xml</dc:format><dc:type
           rdf:resource="http://purl.org/dc/dcmitype/StillImage" /><dc:title></dc:title></cc:Work></rdf:RDF></metadata><defs
     id="defs6"><clipPath
       clipPathUnits="userSpaceOnUse"
       id="clipPath18"><path
         d="m 0,0 595.28,0 0,841.89 L 0,841.89 0,0 z"
         id="path20" /></clipPath><clipPath
       clipPathUnits="userSpaceOnUse"
       id="clipPath28"><path
         d="m 0,0 595.28,0 0,841.89 L 0,841.89 0,0 z"
         id="path30" /></clipPath><clipPath
       clipPathUnits="userSpaceOnUse"
       id="clipPath38"><path
         d="m 53.03667,56.69292 489.2067,0 0,728.5042 -489.2067,0 0,-728.5042 z"
         id="path40" /></clipPath><clipPath
       clipPathUnits="userSpaceOnUse"
       id="clipPath56"><path
         d="m 23,798 143,0 0,-144 -143,0 0,144 z"
         id="path58" /></clipPath><clipPath
       clipPathUnits="userSpaceOnUse"
       id="clipPath62"><path
         d="m 23,653.9456 143,0 0,143.9444 -143,0 0,-143.9444 z"
         id="path64" /></clipPath><clipPath
       clipPathUnits="userSpaceOnUse"
       id="clipPath68"><path
         d="m 23,654 143,0 0,144 -143,0 0,-144 z"
         id="path70" /></clipPath><clipPath
       clipPathUnits="userSpaceOnUse"
       id="clipPath72"><path
         d="m 23,654 143,0 0,144 -143,0 0,-144 z"
         id="path74" /></clipPath><clipPath
       clipPathUnits="userSpaceOnUse"
       id="clipPath122"><path
         d="m 55.1969,682.5011 299.098,0 0,94.99203 -299.098,0 0,-94.99203 z"
         id="path124" /></clipPath></defs><sodipodi:namedview
     pagecolor="#ffffff"
     bordercolor="#666666"
     borderopacity="1"
     objecttolerance="10"
     gridtolerance="10"
     guidetolerance="10"
     inkscape:pageopacity="0"
     inkscape:pageshadow="2"
     inkscape:window-width="985"
     inkscape:window-height="624"
     id="namedview4"
     showgrid="false"
     showguides="true"
     inkscape:guide-bbox="true"
     inkscape:zoom="2.1447853"
     inkscape:cx="193.75"
     inkscape:cy="101.875"
     inkscape:window-x="0"
     inkscape:window-y="0"
     inkscape:window-maximized="0"
     inkscape:current-layer="g10" /><g
     id="g10"
     inkscape:groupmode="layer"
     inkscape:label="ReScience-banner"
     transform="matrix(1.25,0,0,-1.25,0,203.75)"><g
       style="opacity:0.25"
       id="g78"
       clip-path="url(#clipPath68)"
       transform="translate(-22,-635)"><g
         id="g80" /><g
         id="g82"><g
           id="g84"
           clip-path="url(#clipPath72)"><path
             inkscape:connector-curvature="0"
             id="path86"
             style="fill:#ae1916;fill-opacity:1;fill-rule:evenodd;stroke:none"
             d="m 118.6023,681.373 c 2.8644,2.3322 5.9561,4.4369 8.5462,7.0433 4.6449,4.6763 8.6056,9.9973 10.9736,16.1803 1.7008,4.4436 2.5783,9.2062 3.7593,13.8446 0.0645,0.2573 0.7949,1.4748 -0.6392,1.033 0.0826,0.5716 -0.0301,1.3077 0.2848,1.6845 0.967,1.1631 0.9767,2.831 -0.1407,3.9108 -0.1492,0.1441 -0.2883,0.3721 -0.3048,0.5711 -0.1755,2.0885 -0.3362,4.1783 -0.4604,6.2697 -0.01,0.1842 0.2747,0.3853 0.4222,0.578 0.1425,-0.211 0.396,-0.4155 0.4091,-0.6328 0.0895,-1.5633 0.1094,-3.13 0.2018,-4.6916 0.0182,-0.2973 0.2569,-0.583 0.3926,-0.8735 0.0648,0.2922 0.1988,0.5882 0.1839,0.8769 -0.3493,6.7099 -1.4307,13.2765 -4.0603,19.4978 -1.3976,3.3056 -2.7025,6.6945 -4.5206,9.7629 -2.065,3.4833 -4.6831,6.6682 -8.0015,9.0718 -7.2732,5.2695 -15.3624,8.5088 -24.4004,8.6997 -6.24137,0.1314 -12.36488,-0.7774 -18.08101,-3.6279 -3.06197,-1.5268 -6.24646,-2.8094 -9.34107,-4.271 -0.78849,-0.3721 -1.41928,-1.0683 -2.18446,-1.5084 -0.45868,-0.2624 -1.03648,-0.3156 -1.56129,-0.4619 -0.14244,-0.04 -0.33617,-0.0217 -0.42392,-0.1114 -2.33029,-2.3654 -4.68643,-4.706 -6.95694,-7.1279 -1.52145,-1.6267 -2.95218,-3.3444 -4.34984,-5.0803 -0.44724,-0.5563 -0.69226,-1.289 -0.97205,-1.9635 -0.96229,-2.3109 -1.9424,-4.615 -2.83347,-6.9523 -0.63928,-1.6743 -1.12254,-3.4085 -1.73553,-5.093 -0.10895,-0.3058 -0.5015,-0.5052 -0.76475,-0.7544 0.04451,0.4435 0.02967,0.902 0.1454,1.3243 0.14244,0.5196 0.52015,0.9934 0.58162,1.5114 0.47988,3.9839 1.78979,7.7114 3.79196,11.1284 3.95602,6.7546 9.22703,12.275 16.03433,16.2283 2.81864,-0.0761 4.72458,1.9987 7.05275,3.0619 2.27856,1.0415 4.36976,2.4968 6.64663,3.5451 1.6181,0.7459 3.40958,1.1129 5.11883,1.6691 0.24163,0.0783 0.44554,0.2726 0.66725,0.4121 -0.27979,0.0949 -0.60112,0.3305 -0.8347,0.2624 -2.05983,-0.6047 -4.08998,-1.3153 -6.15998,-1.8818 -0.95721,-0.2628 -1.98394,-0.2777 -2.98057,-0.404 -0.04324,0.4703 -0.13099,0.9437 -0.11277,1.4123 0.01315,0.3024 0.18399,0.5979 0.28318,0.8952 -0.32133,-0.0349 -0.68548,0.0149 -0.9589,-0.1195 -2.13952,-1.0615 -4.70254,-1.1763 -6.53091,-2.9569 -0.21026,-0.2062 -0.66555,-0.1595 -1.0085,-0.2292 0.2268,0.2939 0.39764,0.6677 0.68548,0.8688 2.76904,1.9184 5.62371,3.6561 8.97692,4.4003 0.56296,0.1246 1.04157,0.6379 1.55832,0.9734 -0.5778,-0.1624 -1.184,-0.2607 -1.72535,-0.5031 -0.67912,-0.3023 -1.42946,-0.8458 -1.73044,0.2475 -0.09453,0.3407 0.5795,0.9237 0.95212,1.352 0.13057,0.1514 0.42392,0.1497 0.61596,0.2628 0.23019,0.1344 0.43197,0.3155 0.64732,0.4767 -0.26155,-0.007 -0.54982,0.0566 -0.7817,-0.0302 -1.9937,-0.754 -4.04038,-1.4068 -5.95141,-2.3373 -2.78006,-1.3553 -5.65,-2.6545 -8.13204,-4.4602 -2.61643,-1.9035 -4.83396,-4.3607 -7.19858,-6.6065 -1.06446,-1.0118 -2.07,-2.0864 -3.08317,-3.1513 -0.13099,-0.1378 -0.15261,-0.3806 -0.22383,-0.575 0.16915,0.0847 0.36797,0.1349 0.50193,0.2595 1.44895,1.3404 2.85636,2.7323 4.35831,4.0115 0.3048,0.2577 0.53838,1.8274 1.39427,0.3806 0.17254,0.1178 0.37263,0.211 0.51337,0.3585 0.24842,0.2646 0.46207,0.5618 0.69056,0.8442 -0.05935,-0.4155 -0.07291,-0.8442 -0.19373,-1.2409 -0.0958,-0.3173 -0.32599,-0.5916 -0.48666,-0.8905 -0.1772,-0.3258 -0.34464,-0.6579 -0.51506,-0.9884 0.31964,0.0566 0.63927,0.1493 0.9606,0.1544 0.24333,0.005 0.49005,-0.1029 0.73508,-0.1595 -0.08945,-0.2492 -0.13396,-0.5299 -0.27979,-0.7408 -0.7567,-1.0946 -1.47058,-2.2344 -2.34639,-3.2295 -0.39934,-0.4516 -1.31839,-0.4584 -1.68763,-0.9203 -1.41928,-1.7742 -2.81482,-3.585 -4.02384,-5.5051 -1.25692,-1.9936 -2.28196,-4.1349 -3.42951,-6.1979 -0.11912,-0.2143 -0.52142,-0.5252 -0.58119,-0.4835 -1.68254,1.161 -1.42395,-0.6694 -1.79191,-1.2541 -0.75161,-1.1912 -1.29804,-2.5104 -1.95723,-3.7611 -0.12421,-0.2343 -0.58459,-0.4452 -0.54983,-0.5847 0.57653,-2.3905 -1.52484,-4.1081 -1.55493,-6.3225 -0.0212,-1.6747 -0.26623,-3.3758 0.72871,-4.9357 0.31625,-0.495 0.39255,-1.1958 0.4307,-1.8121 0.27131,-4.359 -0.03009,-8.783 1.57317,-12.9809 0.11912,-0.3121 0.22849,-0.6511 0.23188,-0.9785 0.0013,-0.2492 -0.17423,-0.4984 -0.27003,-0.7472 -0.19713,0.2007 -0.51337,0.3734 -0.57145,0.6111 -0.47691,1.9137 -0.8809,3.8457 -1.3629,5.7577 -0.10428,0.4172 -0.43028,0.7774 -0.6541,1.1627 -0.01484,-0.43 -0.09581,-0.8718 -0.03307,-1.2924 0.72533,-4.8289 1.68932,-9.5915 4.34517,-13.8013 0.72067,-1.1427 1.61641,-2.1727 2.40278,-3.2724 0.85801,-1.1993 1.69101,-2.4155 2.51215,-3.6399 0.10598,-0.1578 0.07121,-0.4116 0.10258,-0.6213 -0.19542,0.0685 -0.39721,0.1233 -0.58458,0.208 -0.71685,0.3304 -1.42564,0.6791 -2.14758,0.9951 -0.11742,0.0514 -0.29293,-0.0319 -0.44214,-0.0532 0.10089,-0.1994 0.15897,-0.4418 0.30946,-0.5881 1.84829,-1.8057 3.7076,-3.5982 5.56733,-5.3907 0.0797,-0.0766 0.2073,-0.103 0.28827,-0.1778 0.84953,-0.7923 1.69567,-1.5914 2.54182,-2.3887 -0.9322,0.3738 -1.83642,0.93 -2.80508,1.0912 -5.00606,0.8306 -6.81111,5.1764 -9.52165,8.5403 -0.23867,0.2972 -0.61426,0.4835 -0.92584,0.7212 0.11615,-0.3423 0.30819,-0.6796 0.33956,-1.03 0.21196,-2.4223 1.74188,-4.0537 3.3053,-5.6799 0.11403,-0.1178 0.08097,-0.3802 0.11573,-0.5762 -0.23994,0.0931 -0.56636,0.1178 -0.70371,0.2921 -1.42564,1.8142 -2.84959,3.6331 -4.21249,5.4954 -0.77662,1.0631 -1.43581,2.2143 -2.15605,3.3209 -0.05469,0.0829 -0.17381,0.1246 -0.26326,0.1841 -0.05002,-0.196 -0.18228,-0.415 -0.13607,-0.5847 0.34803,-1.2439 0.61298,-2.5316 1.1378,-3.7011 0.53965,-1.2044 1.32814,-2.299 2.04498,-3.4188 0.16745,-0.2624 0.58628,-1.0912 0.6113,0.0932 0.21323,-0.02 0.56296,0.0365 0.62061,-0.0681 0.38111,-0.691 0.6113,-1.4803 1.05683,-2.1216 1.31288,-1.8921 2.43754,-4.0482 4.15442,-5.4754 1.16111,-0.9649 2.27729,-2.2292 4.10354,-2.6328 1.95087,-0.4321 3.68597,-1.8355 5.52918,-2.7877 0.31115,-0.1611 0.68887,-0.1909 1.03648,-0.2806 -0.23994,0.2258 -0.47352,0.4618 -0.72533,0.6761 -0.21492,0.1829 -0.47818,0.3122 -0.67064,0.515 -0.14243,0.1527 -0.20517,0.3819 -0.30437,0.5763 0.24672,-0.001 0.53965,0.085 0.73168,-0.0183 2.35827,-1.2541 4.8454,-2.1412 7.45505,-2.6809 0.23358,-0.0481 0.61596,-0.0766 0.71854,0.0549 0.62105,0.7837 0.57145,0.7242 1.48245,0.367 1.03818,-0.407 2.11621,-0.7906 3.21077,-0.9569 3.89115,-0.5898 6.24094,-3.3026 8.20029,-6.2642 1.08269,-1.6399 2.85637,-3.0318 2.91445,-5.2181 0.03476,-1.3306 0.12548,-2.8671 -0.45741,-3.9669 -2.01489,-3.8091 -4.12474,-7.6782 -8.97649,-8.5339 -0.46377,-0.0829 -0.9623,0.0451 -1.42904,-0.0246 -0.82961,-0.1246 -1.67448,-0.2526 -2.46933,-0.5099 -3.15099,-1.0185 -6.43001,-1.3741 -9.39236,0.0829 -3.47062,1.7079 -6.90522,3.6811 -9.92225,6.0865 -7.35925,5.8657 -14.3802,12.1784 -20.46259,19.3816 -5.45288,6.4586 -9.16896,13.9888 -11.4755,22.1387 -0.80969,2.8591 -1.26498,5.8474 -1.57147,8.8094 -0.30819,2.9786 -0.24164,5.9989 -0.30141,9.0004 -0.0068,0.3156 0.2552,0.6379 0.39255,0.9569 0.10089,-0.339 0.24333,-0.6711 0.29632,-1.0164 0.84275,-5.4056 1.63294,-10.8197 2.5486,-16.2121 0.15558,-0.9084 0.84275,-1.7258 1.28321,-2.5865 -0.10937,0.9139 -0.13735,1.8474 -0.34295,2.7413 -0.74313,3.2358 -2.07806,6.4385 -2.20566,9.6931 -0.21832,5.5651 0.11955,11.1765 0.59943,16.7348 0.24841,2.8757 1.10303,5.7496 2.03354,8.5054 1.77028,5.2444 3.7839,10.4076 5.72969,15.5921 0.10598,0.284 0.51973,0.452 0.78976,0.6744 0.0034,-0.3138 0.05299,-0.6362 -0.0017,-0.9402 -0.11064,-0.6145 -0.27809,-1.2176 -0.42223,-1.8257 0.33956,0.5801 0.65411,1.1763 1.02504,1.7359 0.34634,0.5252 0.75203,1.01 1.13102,1.5136 -0.05469,-0.6562 0.0051,-1.3473 -0.18695,-1.9584 -0.3031,-0.9671 -0.79485,-1.8742 -1.16408,-2.8225 -0.15897,-0.4053 -0.27852,-0.8539 -0.28318,-1.286 -0.0051,-0.3105 0.20687,-0.6226 0.3226,-0.9352 0.19246,0.236 0.41417,0.4521 0.56975,0.7094 0.23188,0.387 0.40569,0.8088 0.62613,1.2043 0.21026,0.3789 0.44511,0.7408 0.67064,1.1113 0.08945,-0.3671 0.16533,-0.7375 0.2747,-1.0998 0.03815,-0.1276 0.21535,-0.3368 0.2268,-0.3321 0.22849,0.1331 0.44214,0.2926 0.66089,0.4435 0.38407,0.2658 0.76983,0.5299 1.15433,0.7957 -0.07292,-0.475 -0.07461,-0.9751 -0.23019,-1.4217 -1.42776,-4.1132 -2.91614,-8.2064 -4.30575,-12.3328 -0.31794,-0.9454 -0.33278,-1.9936 -0.46673,-2.9969 -0.01654,-0.1199 0.0975,-0.2577 0.15218,-0.3869 0.09623,0.1195 0.23528,0.2258 0.28318,0.3636 0.41714,1.1746 0.7851,2.3653 1.22555,3.5284 1.43878,3.7926 2.90088,7.5749 4.35493,11.3594 0.03984,0.1063 0.06486,0.2326 0.13904,0.3087 0.28657,0.2977 0.58967,0.5801 0.88769,0.8672 -0.08436,-0.3637 -0.10259,-0.7638 -0.26834,-1.0862 -0.56466,-1.1099 -1.19715,-2.1846 -1.7652,-3.2924 -0.10598,-0.2063 -0.02968,-0.5069 -0.03816,-0.7642 0.14583,0.1458 0.29802,0.287 0.43579,0.4418 0.26665,0.3041 0.52482,0.6145 0.78637,0.922 0.03985,-0.4703 0.21705,-0.9836 0.09284,-1.4055 -0.36754,-1.2426 -0.85928,-2.4487 -1.28659,-3.6731 -0.0513,-0.1492 -0.0051,-0.3338 -0.0034,-0.5013 0.09919,0.0697 0.23358,0.1161 0.29123,0.2109 1.10134,1.7491 2.20608,3.4966 3.26884,5.2691 0.14922,0.2492 1.03352,0.9305 -0.24969,0.8258 0.30777,0.6877 0.5015,1.4651 0.95382,2.035 0.48836,0.6128 1.3362,0.9385 1.82794,1.5496 1.84617,2.2927 3.6118,4.6499 5.40328,6.9855 0.61426,0.8008 1.19545,1.6296 1.82836,2.4138 3.01873,3.7411 6.97814,6.4573 10.72517,9.3113 2.62151,1.9949 5.9514,3.0879 9.02651,4.4402 3.35193,1.4736 6.80264,2.7192 10.15287,4.1996 0.98858,0.4367 1.75672,1.357 2.66095,2.0051 0.64562,0.4636 1.30143,1.0615 2.03693,1.2274 7.15025,1.6215 14.24581,1.2426 21.35961,-0.4734 6.0544,-1.4616 11.9609,-3.2707 17.379,-6.379 5.0294,-2.8855 9.9922,-5.8921 14.1288,-10.0687 0.6901,-0.6974 1.7169,-1.0513 2.5482,-1.6228 0.298,-0.2058 0.5134,-0.5682 0.6905,-0.8986 0.0929,-0.1761 -0.0661,-0.5333 0.048,-0.6464 0.6146,-0.6145 1.2785,-1.1776 1.9275,-1.7594 -0.2251,0.6482 -0.3362,1.3707 -0.7003,1.9274 -0.9241,1.4136 -1.8614,2.8454 -2.9772,4.1047 -2.6796,3.0219 -5.2163,6.2127 -8.6755,8.4241 -1.2353,0.7872 -2.5651,1.4268 -3.7987,2.2144 -0.8398,0.538 -1.6181,1.1861 -2.3714,1.8457 -0.3595,0.3155 -0.5944,0.774 -0.8877,1.1678 0.4951,-0.1995 1.0186,-0.3441 1.4773,-0.6082 1.5465,-0.8854 2.9344,-2.0315 4.9179,-2.0102 0.5431,0.005 1.0217,-1.1278 1.6609,-1.5233 1.5071,-0.9318 3.0768,-1.7641 4.6581,-2.5665 0.3463,-0.1744 0.8431,-0.0779 1.2671,-0.0583 0.2666,0.0136 0.5299,0.1182 0.7931,0.1829 -0.1509,0.2177 -0.2815,0.455 -0.4604,0.6498 -0.2268,0.2488 -0.5116,0.4431 -0.7367,0.694 -0.2353,0.2611 -0.4307,0.5601 -0.6427,0.8425 0.5926,-0.0383 1.6957,-0.0268 1.7042,-0.1195 0.2183,-2.3194 2.6575,-1.7462 3.8199,-2.8557 0.4421,-0.4206 0.992,-0.8042 1.4409,-1.3821 0.9653,-1.2444 2.1577,-2.3075 3.2006,-3.4936 3.981,-4.5219 7.3028,-9.5005 9.7306,-15.0125 1.6821,-3.8142 3.4507,-7.6782 4.4194,-11.7029 1.3201,-5.4754 1.9742,-11.117 2.7919,-16.7038 0.3726,-2.5567 0.78,-5.181 0.5931,-7.7309 -0.2768,-3.7564 -1.0187,-7.4839 -1.6575,-11.2067 -0.4574,-2.6614 -1.2421,-5.2742 -1.5766,-7.9475 -0.4718,-3.7908 -1.9144,-7.1032 -4.0556,-10.203 -0.4104,-0.5962 -0.2234,-1.5799 -0.5613,-2.259 -2.6063,-5.2296 -6.0175,-9.8646 -9.8527,-14.2882 -1.6559,-1.9104 -3.1595,-3.9636 -5.0773,-5.6429 -0.4952,-0.4338 -1.1391,-0.7013 -1.7237,-1.0283 -0.3378,-0.1897 -0.8593,-0.2527 -1.0119,-0.5299 -0.9737,-1.7777 -2.4986,-2.766 -4.3765,-3.3193 -0.2069,-0.0616 -0.3972,-0.216 -0.5698,-0.3589 -1.4917,-1.2324 -2.9771,-2.4751 -4.4693,-3.7096 -0.215,-0.1778 -0.4337,-0.3819 -0.6872,-0.4767 -3.1527,-1.1759 -6.2791,-2.4436 -9.4818,-3.4634 -3.1497,-1.0037 -6.3787,-1.7645 -9.5827,-2.5899 -0.3794,-0.0983 -0.8279,0.0714 -1.2438,0.1161 0.3396,0.2194 0.6524,0.5333 1.0233,0.643 5.0192,1.4884 10.0978,2.8076 14.7711,5.2627 1.8462,0.9717 3.6512,2.0217 5.4677,3.0517 0.1691,0.0949 0.2751,0.3007 0.4108,0.4568 -0.1954,-0.0349 -0.3909,-0.0647 -0.5863,-0.1046 -1.4507,-0.2956 -2.6063,-0.9718 -3.8564,-1.8789 -1.8945,-1.377 -4.3388,-1.9919 -6.5496,-2.9305 -0.9868,-0.4185 -1.9623,-0.8688 -2.9657,-1.2393 -0.2666,-0.0978 -0.621,0.0485 -0.9356,0.0817 0.2154,0.2275 0.3875,0.5316 0.649,0.6711 1.6927,0.9003 3.4495,1.6908 5.1023,2.6596 2.9458,1.7257 5.8654,3.5017 8.7285,5.3605 1.2667,0.8208 2.3761,1.8891 3.5402,2.8642 0.2005,0.1659 0.3264,0.4236 0.4854,0.6396 -0.2421,-0.0599 -0.4986,-0.0897 -0.7224,-0.1914 -0.2001,-0.0914 -0.3493,-0.2921 -0.5477,-0.3903 -0.1823,-0.0911 -0.3993,-0.1127 -0.6011,-0.1642 0.0759,0.2339 0.081,0.5545 0.2416,0.6894 0.9488,0.8007 1.9789,1.5084 2.8962,2.3406 2.0484,1.8572 4.0506,3.7658 6.0625,5.6629 0.1954,0.1846 0.3345,0.4321 0.4981,0.6494 -0.2302,-0.108 -0.4951,-0.1726 -0.6855,-0.3287 -1.8398,-1.5199 -3.605,-3.1381 -5.5241,-4.5483 -0.9686,-0.7127 -1.5896,-2.7476 -3.4625,-1.3141 -0.0975,0.0762 -0.6855,-0.475 -1.0348,-0.7476 -4.4312,-3.4421 -9.2037,-6.3191 -14.3043,-8.6432 -0.2467,-0.1131 -0.5859,-0.0199 -0.8843,-0.0233 0.2369,0.2177 0.4421,0.4869 0.7122,0.643 2.7868,1.613 5.5987,3.1827 8.3673,4.8289 0.5134,0.3041 0.8631,0.8871 1.2887,1.3426 -0.4756,-0.256 -0.9458,-0.5269 -1.4307,-0.7642 -3.8454,-1.8823 -7.692,-3.7611 -11.5455,-5.6268 -0.1971,-0.0944 -0.4637,-0.0429 -0.6986,-0.0595 0.1488,0.151 0.273,0.3487 0.4502,0.4435 1.1395,0.6129 2.2951,1.1908 3.4329,1.8057 0.27,0.1459 0.4884,0.387 0.7304,0.5848 -0.2997,-0.0468 -0.6261,-0.0319 -0.8978,-0.1463 -2.8564,-1.1946 -5.6979,-2.4287 -8.5662,-3.5982 -0.3908,-0.1595 -0.8991,-0.0298 -1.3527,-0.0349 0.3277,0.236 0.6524,0.4818 0.9886,0.706 1.401,0.9351 2.7953,1.8805 4.2112,2.791 2.3629,1.5216 4.7674,2.9782 7.1053,4.5368 2.5355,1.6908 5.0192,3.4583 7.5063,5.2193 0.237,0.1676 0.3396,0.5265 0.5037,0.7957 -0.2798,-0.1046 -0.5914,-0.1612 -0.8364,-0.3207 -2.2587,-1.4782 -4.3783,-3.2524 -6.7942,-4.387 -2.3828,-1.1198 -5.0641,-1.6067 -7.6191,-2.3475 -0.1624,-0.0481 -0.3773,0.0948 -0.5697,0.1497 0.1127,0.1709 0.1856,0.4103 0.3446,0.5031 0.7766,0.4601 1.616,0.8224 2.3612,1.3242 3.2159,2.1693 6.4101,4.3739 9.6077,6.5751 0.2222,0.1527 0.396,0.3768 0.5914,0.5682 -0.2518,-0.0417 -0.5384,-0.0217 -0.7503,-0.1365 -0.6906,-0.3772 -1.3477,-0.814 -2.0302,-1.2078 -3.4905,-2.0098 -6.9815,-4.0201 -10.4869,-6.0069 -0.3111,-0.1778 -0.7219,-0.1778 -1.0865,-0.2607 0.2056,0.2773 0.3595,0.6298 0.6278,0.8191 2.3117,1.633 4.6517,3.2295 6.9663,4.8608 0.3281,0.2292 0.5697,0.5813 0.8495,0.8769 -0.4319,-0.0498 -0.866,-0.0978 -1.298,-0.151 -2.3896,-0.2926 -3.9429,-2.0017 -5.6916,-3.3809 -0.5481,-0.4333 -0.4866,-0.3487 -1.0347,0.0319 -0.2205,0.1527 -0.7635,-0.1879 -1.1658,-0.2675 -0.4422,-0.088 -0.8945,-0.1348 -1.3413,-0.2011 0.3226,0.2938 0.6176,0.6311 0.9737,0.8739 3.5851,2.4368 7.1834,4.8557 10.7651,7.2959 0.1822,0.1246 0.2535,0.4155 0.3777,0.6282 -0.2039,-0.0668 -0.404,-0.1582 -0.613,-0.1995 -0.5197,-0.0999 -1.045,-0.1761 -1.5681,-0.2624 l -0.0246,-0.0366 z m -16.9008,102.6128 c -1.2234,-0.108 -2.11791,-0.1828 -3.01196,-0.2692 -0.21874,-0.0217 -0.43409,-0.0799 -0.65071,-0.1195 0.24502,-0.0382 0.49005,-0.0765 0.73507,-0.1165 1.9327,-0.3206 3.8784,-0.5762 5.7941,-0.9832 1.2302,-0.2624 2.3943,-0.8259 3.6216,-1.118 2.181,-0.5201 4.3931,-0.9122 6.5792,-1.4124 0.8194,-0.1875 1.5995,-0.543 2.4091,-0.7854 0.3116,-0.0932 0.6541,-0.0817 0.9823,-0.1166 -0.2468,0.1761 -0.4723,0.3972 -0.7419,0.5235 -1.0751,0.5002 -2.1611,0.9701 -3.2459,1.4502 -4.0752,1.8023 -8.3937,2.5219 -12.4709,2.9471 z M 43.33669,749.1201 c 0.42688,0.5001 0.64902,0.683 0.77492,0.9173 1.16917,2.1676 2.26839,4.3756 3.49734,6.5084 1.12932,1.9634 2.33791,3.8873 3.61815,5.7577 0.81986,1.198 1.83472,2.2594 2.747,3.3941 0.1276,0.1594 0.17423,0.3869 0.25859,0.583 -0.21535,-0.1148 -0.46886,-0.1863 -0.64097,-0.3474 -3.84028,-3.5783 -6.47791,-8.0551 -9.17531,-12.477 -0.57823,-0.9488 -0.8826,-2.0732 -1.24887,-3.1381 -0.08775,-0.256 0.07461,-0.5983 0.16915,-1.198 z m 89.42711,21.1206 c -0.1077,0.1297 -0.2006,0.276 -0.3248,0.3887 -1.4985,1.3558 -2.8894,2.8642 -4.5287,4.0188 -2.2921,1.613 -4.7593,2.9816 -7.1854,4.3956 -0.2913,0.1709 -0.7966,-0.0268 -1.2023,-0.0532 0.2022,-0.3674 0.3133,-0.8824 0.6228,-1.0768 2.6626,-1.6679 5.3736,-3.2558 8.0447,-4.9118 1.3794,-0.8557 2.7059,-1.801 4.0552,-2.7064 0.1408,-0.0944 0.2781,-0.191 0.4176,-0.2871 0.033,0.0761 0.0644,0.1527 0.1009,0.2322 z m -56.52715,9.2313 c -0.01484,0.2577 -0.01992,0.3424 -0.02501,0.4287 -0.16194,-0.0383 -0.34253,-0.0413 -0.48157,-0.1195 -0.63249,-0.3538 -1.26837,-0.7094 -1.87627,-1.1049 -0.43537,-0.2823 -0.82792,-0.6277 -1.24039,-0.9449 0.49514,0.2156 0.99876,0.4151 1.48541,0.6528 0.73847,0.3589 1.4638,0.7442 2.13783,1.0878 z M 54.92792,758.448 c -0.04621,0.1829 -0.07122,0.279 -0.09581,0.3738 -0.11785,-0.1046 -0.25689,-0.1943 -0.3527,-0.3173 -0.77662,-1.0202 -1.54985,-2.0451 -2.31672,-3.0734 -0.09793,-0.131 -0.14922,-0.2938 -0.22341,-0.4418 0.09581,-0.02 0.25139,-0.0881 0.2781,-0.0549 0.92244,1.1797 1.83302,2.3692 2.71054,3.5136 z" /><path
             inkscape:connector-curvature="0"
             id="path88"
             style="fill:#ae1916;fill-opacity:1;fill-rule:evenodd;stroke:none"
             d="m 140.6211,723.8451 c -0.8928,-4.854 -1.7885,-9.7063 -2.6762,-14.5621 -1.2484,-6.8425 -5.3982,-12.1933 -9.1753,-17.6988 -1.2302,-1.7921 -3.0535,-3.1793 -4.65,-4.7043 -0.2119,-0.2029 -0.6905,-0.1213 -1.0449,-0.171 0.156,0.2207 0.2814,0.4733 0.4739,0.6575 3.4757,3.3757 6.3156,7.2546 8.7531,11.4142 1.4523,2.4785 2.9458,5.002 3.9047,7.6897 2.7224,7.6268 3.499,15.5325 2.5304,23.5795 -0.323,2.6894 -0.8796,5.3507 -1.3065,8.0282 -0.0501,0.3075 0.0479,0.6396 0.0775,0.9603 0.1641,-0.259 0.3977,-0.4984 0.4787,-0.7825 0.2649,-0.9169 0.323,-1.9218 0.7304,-2.7626 1.4307,-2.9501 0.462,-6.2212 1.3345,-9.2377 0.2153,-0.7476 0.1873,-1.565 0.27,-2.3509 0.0992,-0.0199 0.2005,-0.0395 0.2997,-0.0595 z" /><path
             inkscape:connector-curvature="0"
             id="path90"
             style="fill:#ae1916;fill-opacity:1;fill-rule:evenodd;stroke:none"
             d="m 67.50645,785.5755 c -0.26155,-0.1744 -0.51803,-0.3572 -0.78637,-0.5231 -1.87457,-1.1529 -3.83689,-2.1863 -5.61354,-3.4736 -4.29897,-3.1168 -8.03454,-6.8575 -11.5819,-10.8048 -0.83427,-0.9267 -1.99369,-1.5599 -3.01025,-2.3173 -0.1293,-0.0961 -0.29802,-0.1361 -0.44893,-0.2024 0.01653,0.2075 -0.04155,0.4699 0.06316,0.6162 0.69353,0.9602 1.32136,1.9983 2.15733,2.8208 2.80041,2.7557 5.58386,5.5434 8.56614,8.0916 1.65625,1.4153 3.6847,2.3955 5.55928,3.5467 1.33449,0.8191 2.68256,1.6165 4.04885,2.382 0.26622,0.1497 0.63715,0.1097 0.96187,0.156 0.02798,-0.0978 0.05638,-0.1943 0.08436,-0.2921 z" /><path
             inkscape:connector-curvature="0"
             id="path92"
             style="fill:#ae1916;fill-opacity:1;fill-rule:evenodd;stroke:none"
             d="m 100.2178,794.4513 c -2.46215,-0.1927 -5.11843,-0.407 -7.77768,-0.6013 -0.27851,-0.0217 -0.56635,0.068 -0.85123,0.108 0.16236,0.2058 0.27809,0.4984 0.49005,0.6047 3.14464,1.5965 6.4368,2.5367 10.00366,2.103 0.3773,-0.0447 0.8512,-0.171 1.0746,-0.4351 0.4223,-0.4967 0.694,-1.1231 1.0285,-1.6964 -0.4706,-0.0697 -0.9407,-0.1973 -1.4108,-0.2007 -0.7851,-0.005 -1.5715,0.068 -2.5571,0.1178 z" /><path
             inkscape:connector-curvature="0"
             id="path94"
             style="fill:#ae1916;fill-opacity:1;fill-rule:evenodd;stroke:none"
             d="m 97.28849,791.5773 c -1.54815,0 -3.09504,-0.0115 -4.64149,0.0136 -0.21705,0.003 -0.43071,0.1859 -0.64563,0.2854 0.17719,0.1097 0.34591,0.2977 0.53286,0.3189 2.68257,0.3126 5.36725,0.6213 8.05787,0.8689 0.2917,0.0267 0.6193,-0.3339 0.9305,-0.515 -0.2433,-0.214 -0.46,-0.5665 -0.7334,-0.6197 -1.15262,-0.2156 -2.32009,-0.3436 -3.48248,-0.5048 -0.0064,0.0515 -0.01314,0.103 -0.01823,0.1527 z" /><path
             inkscape:connector-curvature="0"
             id="path96"
             style="fill:#ae1916;fill-opacity:1;fill-rule:evenodd;stroke:none"
             d="m 46.22951,772.4585 c -0.34931,0.535 -0.81307,0.9687 -0.9305,1.482 -0.23019,1.0215 1.17383,2.1264 2.29171,2.1613 0.39552,0.0114 0.75669,0.7276 1.15899,1.0963 0.15389,0.1412 0.37772,0.2075 0.56806,0.3071 -0.02968,-0.2259 0.0034,-0.49 -0.10259,-0.6711 -0.75373,-1.2822 -1.52357,-2.5533 -2.31503,-3.8109 -0.13904,-0.2173 -0.41077,-0.3504 -0.67064,-0.5647 z" /><path
             inkscape:connector-curvature="0"
             id="path98"
             style="fill:#ae1916;fill-opacity:1;fill-rule:evenodd;stroke:none"
             d="m 93.44524,790.6473 c 0.33447,-0.0383 0.67064,-0.0732 1.00511,-0.1149 0.11107,-0.0132 0.21832,-0.0399 0.32769,-0.0595 -0.12718,-0.0549 -0.25011,-0.1365 -0.38407,-0.1595 -1.15561,-0.2143 -2.32647,-0.364 -3.46936,-0.6349 -2.23533,-0.5316 -4.45412,-1.1329 -6.68478,-1.6858 -0.19204,-0.0468 -0.42053,0.0545 -0.63419,0.0881 0.11404,0.1492 0.20179,0.3967 0.34422,0.4333 3.13489,0.8271 6.27613,1.6279 9.41568,2.4355 0.02671,-0.1016 0.05299,-0.2011 0.0797,-0.3023 z" /><path
             inkscape:connector-curvature="0"
             id="path100"
             style="fill:#ae1916;fill-opacity:1;fill-rule:evenodd;stroke:none"
             d="m 118.6286,681.4062 c -0.6906,-0.4703 -1.209,-1.05 -1.747,-1.7079 -1.0335,-1.2541 -2.7987,-1.9188 -4.3036,-2.7493 -0.159,-0.0881 -0.6079,0.3508 -0.9225,0.5452 0.2764,0.0727 0.5482,0.1543 0.8263,0.2139 0.2598,0.0582 0.7121,0.0217 0.76,0.148 0.5482,1.4603 2.3812,1.3255 3.1197,2.5996 0.3412,0.5882 1.0699,0.9586 1.6592,1.3741 0.0581,0.0417 0.3811,-0.2956 0.5816,-0.4568 l 0.0263,0.0332 z" /><path
             inkscape:connector-curvature="0"
             id="path102"
             style="fill:#ae1916;fill-opacity:1;fill-rule:evenodd;stroke:none"
             d="m 84.94692,793.0594 c 0.20857,-0.0485 0.41884,-0.0949 0.6274,-0.1429 -0.1471,-0.1114 -0.27809,-0.2726 -0.44384,-0.3258 -2.18064,-0.7025 -4.36807,-1.3919 -6.55379,-2.0783 -0.14583,-0.0446 -0.30989,-0.0348 -0.46547,-0.0497 0.12082,0.1395 0.21366,0.3474 0.36584,0.4104 2.09798,0.8505 4.20444,1.6828 6.3075,2.5184 0.05469,-0.1097 0.10768,-0.2211 0.16236,-0.3321 z" /><path
             inkscape:connector-curvature="0"
             id="path104"
             style="fill:#ae1916;fill-opacity:1;fill-rule:evenodd;stroke:none"
             d="m 135.1169,746.5702 c 0.3226,-0.4104 0.5134,-0.563 0.5842,-0.7591 0.5664,-1.5284 1.1297,-3.0581 1.6427,-4.6048 0.078,-0.2377 -0.1009,-0.5614 -0.1603,-0.8454 -0.1589,0.1977 -0.3811,0.3721 -0.4688,0.5996 -0.5897,1.5233 -1.1624,3.0534 -1.7037,4.595 -0.078,0.2224 0.0479,0.5163 0.1059,1.0147 z" /><path
             inkscape:connector-curvature="0"
             id="path106"
             style="fill:#ae1916;fill-opacity:1;fill-rule:evenodd;stroke:none"
             d="m 61.74539,777.2827 c -0.28445,-0.1845 -0.58925,-0.344 -0.8542,-0.5549 -1.07294,-0.8523 -2.12468,-1.7326 -3.2061,-2.5729 -0.1755,-0.1382 -0.46207,-0.1314 -0.69693,-0.1931 0.06274,0.1961 0.06444,0.4602 0.19713,0.5784 1.17383,1.0449 2.35614,2.0795 3.57321,3.073 0.16406,0.1348 0.5299,0.0183 0.80164,0.0183 0.06274,-0.1161 0.1242,-0.2327 0.18525,-0.3488 z" /><path
             inkscape:connector-curvature="0"
             id="path108"
             style="fill:#ae1916;fill-opacity:1;fill-rule:evenodd;stroke:none"
             d="m 88.6842,794.2238 c 0.43748,-0.3041 0.71218,-0.495 0.98688,-0.6843 -0.82791,-0.3058 -1.64396,-0.6532 -2.49053,-0.8871 -0.19669,-0.0549 -0.4981,0.2739 -0.74991,0.4253 0.73041,0.3721 1.4604,0.7425 2.25356,1.1461 z" /><path
             inkscape:connector-curvature="0"
             id="path110"
             style="fill:#ae1916;fill-opacity:1;fill-rule:evenodd;stroke:none"
             d="m 105.2849,666.1743 c 0.5117,-0.1063 0.7702,-0.1594 1.0301,-0.2143 -0.2153,-0.151 -0.4273,-0.307 -0.649,-0.4499 -0.1408,-0.0915 -0.2866,-0.188 -0.4456,-0.2395 -1.1026,-0.3585 -2.2124,-0.7076 -3.3184,-1.058 0.008,0.0897 -0.0131,0.2394 0.0297,0.2607 1.1708,0.6047 2.3464,1.1945 3.3532,1.701 z" /><path
             inkscape:connector-curvature="0"
             id="path112"
             style="fill:#ae1916;fill-opacity:1;fill-rule:evenodd;stroke:none"
             d="m 42.3197,762.2303 c -0.03137,0.2412 -0.1259,0.447 -0.06104,0.5469 0.67234,1.0283 1.3629,2.0464 2.06957,3.0513 0.07631,0.1081 0.28318,0.1217 0.42901,0.1778 0.02162,-0.1459 0.11276,-0.3389 0.0513,-0.4316 -0.67531,-1.0237 -1.37096,-2.0337 -2.07128,-3.0403 -0.05977,-0.0863 -0.1755,-0.131 -0.41756,-0.3041 z" /><path
             inkscape:connector-curvature="0"
             id="path114"
             style="fill:#ae1916;fill-opacity:1;fill-rule:evenodd;stroke:none"
             d="m 50.18553,766.7042 c -0.06952,0.5367 -0.18568,0.8007 -0.10259,0.9054 0.69353,0.8688 1.4125,1.7193 2.15436,2.5482 0.11573,0.128 0.39085,0.1246 0.59433,0.1514 0.02671,0.003 0.13905,-0.2309 0.10768,-0.2692 -0.833,-1.0266 -1.67914,-2.0417 -2.75378,-3.3358 z" /><path
             inkscape:connector-curvature="0"
             id="path116"
             style="fill:#ae1916;fill-opacity:1;fill-rule:evenodd;stroke:none"
             d="m 97.14944,796.7703 c -0.62443,0.1926 -1.0085,0.3108 -1.39088,0.4286 0.38916,0.2361 0.76179,0.6265 1.17384,0.6711 0.66597,0.0732 1.35654,-0.0795 2.03693,-0.1378 -0.63079,-0.3338 -1.26031,-0.6659 -1.81989,-0.9619 z" /></g></g></g><text
       transform="scale(1,-1)"
       id="text128"
       x="48.692921"
       y="-75.7892"><tspan
         style="font-size:52px;font-variant:normal;font-weight:normal;writing-mode:lr-tb;fill:#000000;fill-opacity:1;fill-rule:nonzero;stroke:none;font-family:Helvetica Neue;-inkscape-font-specification:HelveticaNeue"
         x="48.692921 84.31292"
         y="-75.7892"
         sodipodi:role="line"
         id="tspan130">Re</tspan></text>
<text
       transform="scale(1,-1)"
       id="text134"
       x="112.23692"
       y="-75.7892"><tspan
         style="font-size:52px;font-variant:normal;font-weight:bold;writing-mode:lr-tb;fill:#cf232b;fill-opacity:1;fill-rule:nonzero;stroke:none;font-family:Helvetica Neue;-inkscape-font-specification:HelveticaNeue-Bold"
         x="112.23692 145.98492 175.83292 189.24892 219.09692 249.93292 279.78091"
         y="-75.7892"
         sodipodi:role="line"
         id="tspan136">Science</tspan></text>
<text
       xml:space="preserve"
       style="font-size:16px;font-style:normal;font-variant:normal;font-weight:bold;font-stretch:normal;line-height:125%;letter-spacing:0px;word-spacing:0px;fill:#000000;fill-opacity:1;stroke:none;font-family:Arial;-inkscape-font-specification:Arial Bold"
       x="50.905804"
       y="-65.056145"
       id="text3024"
       sodipodi:linespacing="125%"
       transform="scale(1,-1)"><tspan
         sodipodi:role="line"
         id="tspan3026"
         x="50.905804"
         y="-65.056145"
         style="font-size:11.24px;font-style:normal;font-variant:normal;font-weight:300;font-stretch:normal;text-align:start;line-height:125%;writing-mode:lr-tb;text-anchor:start;font-family:Gill Sans;-inkscape-font-specification:Gill Sans Light">Reproducible science is good. Replicated science is better.</tspan></text>
</g></svg>